<mxfile host="Electron" modified="2024-02-13T04:04:58.453Z" agent="Mozilla/5.0 (Windows NT 10.0; Win64; x64) AppleWebKit/537.36 (KHTML, like Gecko) draw.io/23.0.2 Chrome/120.0.6099.109 Electron/28.1.0 Safari/537.36" etag="qkl3_TRTgbl2sYR1Y4mh" version="23.0.2" type="device">
  <diagram name="Page-1" id="IdeVzpM_jqfvQFY3XDCI">
    <mxGraphModel dx="2620" dy="2214" grid="1" gridSize="10" guides="1" tooltips="1" connect="1" arrows="1" fold="1" page="1" pageScale="1" pageWidth="827" pageHeight="1169" math="1" shadow="0">
      <root>
        <mxCell id="0" />
        <mxCell id="1" parent="0" />
        <mxCell id="-X5c44Cogpi9NKUa5mA4-91" style="edgeStyle=orthogonalEdgeStyle;rounded=0;orthogonalLoop=1;jettySize=auto;html=1;exitX=0.5;exitY=1;exitDx=0;exitDy=0;exitPerimeter=0;entryX=0.5;entryY=0;entryDx=0;entryDy=0;" edge="1" parent="1" source="-X5c44Cogpi9NKUa5mA4-21" target="-X5c44Cogpi9NKUa5mA4-90">
          <mxGeometry relative="1" as="geometry" />
        </mxCell>
        <mxCell id="-X5c44Cogpi9NKUa5mA4-21" value="&lt;font data-font-src=&quot;https://fonts.googleapis.com/css?family=Roboto+Mono&quot; face=&quot;Roboto Mono&quot;&gt;START&lt;/font&gt;" style="strokeWidth=2;html=1;shape=mxgraph.flowchart.terminator;whiteSpace=wrap;" vertex="1" parent="1">
          <mxGeometry x="40" y="-380" width="80" height="40" as="geometry" />
        </mxCell>
        <mxCell id="-X5c44Cogpi9NKUa5mA4-22" value="&lt;font data-font-src=&quot;https://fonts.googleapis.com/css?family=Roboto+Mono&quot; face=&quot;Roboto Mono&quot;&gt;END&lt;/font&gt;" style="strokeWidth=2;html=1;shape=mxgraph.flowchart.terminator;whiteSpace=wrap;" vertex="1" parent="1">
          <mxGeometry x="40" y="1460" width="80" height="40" as="geometry" />
        </mxCell>
        <mxCell id="-X5c44Cogpi9NKUa5mA4-59" style="edgeStyle=orthogonalEdgeStyle;rounded=0;orthogonalLoop=1;jettySize=auto;html=1;exitX=0.5;exitY=1;exitDx=0;exitDy=0;entryX=0.5;entryY=0;entryDx=0;entryDy=0;" edge="1" parent="1" source="-X5c44Cogpi9NKUa5mA4-23" target="-X5c44Cogpi9NKUa5mA4-26">
          <mxGeometry relative="1" as="geometry" />
        </mxCell>
        <mxCell id="-X5c44Cogpi9NKUa5mA4-23" value="&lt;font data-font-src=&quot;https://fonts.googleapis.com/css?family=Roboto+Mono&quot; face=&quot;Roboto Mono&quot;&gt;divide data into &lt;br&gt;three batches:&lt;br&gt;&amp;nbsp;&lt;b&gt;divide_three_batches&lt;/b&gt;&lt;br&gt;&lt;/font&gt;" style="rounded=1;whiteSpace=wrap;html=1;absoluteArcSize=1;arcSize=14;strokeWidth=2;" vertex="1" parent="1">
          <mxGeometry x="-10" y="-200" width="180" height="60" as="geometry" />
        </mxCell>
        <mxCell id="-X5c44Cogpi9NKUa5mA4-64" style="edgeStyle=orthogonalEdgeStyle;rounded=0;orthogonalLoop=1;jettySize=auto;html=1;exitX=0.5;exitY=1;exitDx=0;exitDy=0;entryX=0.5;entryY=0;entryDx=0;entryDy=0;" edge="1" parent="1" source="-X5c44Cogpi9NKUa5mA4-24" target="-X5c44Cogpi9NKUa5mA4-29">
          <mxGeometry relative="1" as="geometry" />
        </mxCell>
        <mxCell id="-X5c44Cogpi9NKUa5mA4-65" value="&lt;font style=&quot;font-size: 12px;&quot; face=&quot;Roboto Mono&quot;&gt;True&lt;/font&gt;" style="edgeLabel;html=1;align=center;verticalAlign=middle;resizable=0;points=[];" vertex="1" connectable="0" parent="-X5c44Cogpi9NKUa5mA4-64">
          <mxGeometry x="-0.5206" relative="1" as="geometry">
            <mxPoint y="10" as="offset" />
          </mxGeometry>
        </mxCell>
        <mxCell id="-X5c44Cogpi9NKUa5mA4-82" style="edgeStyle=orthogonalEdgeStyle;rounded=0;orthogonalLoop=1;jettySize=auto;html=1;entryX=0.5;entryY=0;entryDx=0;entryDy=0;exitX=0.972;exitY=0.488;exitDx=0;exitDy=0;exitPerimeter=0;" edge="1" parent="1" source="-X5c44Cogpi9NKUa5mA4-24" target="-X5c44Cogpi9NKUa5mA4-93">
          <mxGeometry relative="1" as="geometry">
            <mxPoint x="150" y="1320" as="targetPoint" />
            <mxPoint x="200" y="160" as="sourcePoint" />
            <Array as="points">
              <mxPoint x="420" y="179" />
              <mxPoint x="420" y="1380" />
              <mxPoint x="80" y="1380" />
            </Array>
          </mxGeometry>
        </mxCell>
        <mxCell id="-X5c44Cogpi9NKUa5mA4-83" value="&lt;font style=&quot;font-size: 12px;&quot; face=&quot;Roboto Mono&quot;&gt;False&lt;/font&gt;" style="edgeLabel;html=1;align=center;verticalAlign=middle;resizable=0;points=[];" vertex="1" connectable="0" parent="-X5c44Cogpi9NKUa5mA4-82">
          <mxGeometry x="-0.6343" relative="1" as="geometry">
            <mxPoint x="-240" y="-47" as="offset" />
          </mxGeometry>
        </mxCell>
        <mxCell id="-X5c44Cogpi9NKUa5mA4-24" value="&lt;font face=&quot;Roboto Mono&quot;&gt;if &lt;b&gt;j&lt;/b&gt; &amp;lt; &lt;b&gt;max_iter&lt;/b&gt;&lt;/font&gt;" style="shape=hexagon;perimeter=hexagonPerimeter2;whiteSpace=wrap;html=1;fixedSize=1;rounded=1;strokeWidth=2;" vertex="1" parent="1">
          <mxGeometry x="10" y="160" width="140" height="40" as="geometry" />
        </mxCell>
        <mxCell id="-X5c44Cogpi9NKUa5mA4-60" style="edgeStyle=orthogonalEdgeStyle;rounded=0;orthogonalLoop=1;jettySize=auto;html=1;exitX=0.5;exitY=1;exitDx=0;exitDy=0;entryX=0.5;entryY=0;entryDx=0;entryDy=0;" edge="1" parent="1" source="-X5c44Cogpi9NKUa5mA4-26" target="-X5c44Cogpi9NKUa5mA4-27">
          <mxGeometry relative="1" as="geometry" />
        </mxCell>
        <mxCell id="-X5c44Cogpi9NKUa5mA4-26" value="&lt;font data-font-src=&quot;https://fonts.googleapis.com/css?family=Roboto+Mono&quot; face=&quot;Roboto Mono&quot;&gt;calculate median &lt;br&gt;in each batch:&lt;br&gt;&lt;b&gt;median_batch&lt;/b&gt;&lt;br&gt;&lt;/font&gt;" style="rounded=1;whiteSpace=wrap;html=1;absoluteArcSize=1;arcSize=14;strokeWidth=2;fillColor=#dae8fc;strokeColor=#6c8ebf;" vertex="1" parent="1">
          <mxGeometry x="10" y="-120" width="140" height="60" as="geometry" />
        </mxCell>
        <mxCell id="-X5c44Cogpi9NKUa5mA4-61" style="edgeStyle=orthogonalEdgeStyle;rounded=0;orthogonalLoop=1;jettySize=auto;html=1;exitX=0.5;exitY=1;exitDx=0;exitDy=0;entryX=0.5;entryY=0;entryDx=0;entryDy=0;" edge="1" parent="1" source="-X5c44Cogpi9NKUa5mA4-27" target="-X5c44Cogpi9NKUa5mA4-28">
          <mxGeometry relative="1" as="geometry" />
        </mxCell>
        <mxCell id="-X5c44Cogpi9NKUa5mA4-27" value="&lt;font data-font-src=&quot;https://fonts.googleapis.com/css?family=Roboto+Mono&quot; face=&quot;Roboto Mono&quot;&gt;calculate &lt;b&gt;slope_b&lt;/b&gt;, and &lt;b&gt;intercep_a&lt;/b&gt;&lt;br&gt;&lt;/font&gt;" style="rounded=1;whiteSpace=wrap;html=1;absoluteArcSize=1;arcSize=14;strokeWidth=2;fillColor=#dae8fc;strokeColor=#6c8ebf;" vertex="1" parent="1">
          <mxGeometry y="-40" width="160" height="40" as="geometry" />
        </mxCell>
        <mxCell id="-X5c44Cogpi9NKUa5mA4-62" style="edgeStyle=orthogonalEdgeStyle;rounded=0;orthogonalLoop=1;jettySize=auto;html=1;exitX=0.5;exitY=1;exitDx=0;exitDy=0;entryX=0.5;entryY=0;entryDx=0;entryDy=0;" edge="1" parent="1" source="-X5c44Cogpi9NKUa5mA4-28" target="-X5c44Cogpi9NKUa5mA4-42">
          <mxGeometry relative="1" as="geometry" />
        </mxCell>
        <mxCell id="-X5c44Cogpi9NKUa5mA4-28" value="&lt;font data-font-src=&quot;https://fonts.googleapis.com/css?family=Roboto+Mono&quot; face=&quot;Roboto Mono&quot;&gt;define: &lt;b&gt;max_iter&lt;/b&gt;, iterator &lt;b&gt;j=0&lt;/b&gt;&lt;br&gt;&lt;/font&gt;" style="rounded=1;whiteSpace=wrap;html=1;absoluteArcSize=1;arcSize=14;strokeWidth=2;" vertex="1" parent="1">
          <mxGeometry y="20" width="160" height="40" as="geometry" />
        </mxCell>
        <mxCell id="-X5c44Cogpi9NKUa5mA4-67" style="edgeStyle=orthogonalEdgeStyle;rounded=0;orthogonalLoop=1;jettySize=auto;html=1;exitX=0.5;exitY=1;exitDx=0;exitDy=0;entryX=0.5;entryY=0;entryDx=0;entryDy=0;" edge="1" parent="1" source="-X5c44Cogpi9NKUa5mA4-29" target="-X5c44Cogpi9NKUa5mA4-30">
          <mxGeometry relative="1" as="geometry" />
        </mxCell>
        <mxCell id="-X5c44Cogpi9NKUa5mA4-29" value="&lt;font data-font-src=&quot;https://fonts.googleapis.com/css?family=Roboto+Mono&quot; face=&quot;Roboto Mono&quot;&gt;calculate &lt;b&gt;residual_batches&lt;/b&gt;&lt;br&gt;&lt;/font&gt;" style="rounded=1;whiteSpace=wrap;html=1;absoluteArcSize=1;arcSize=14;strokeWidth=2;fillColor=#d5e8d4;strokeColor=#82b366;" vertex="1" parent="1">
          <mxGeometry x="10" y="240" width="140" height="40" as="geometry" />
        </mxCell>
        <mxCell id="-X5c44Cogpi9NKUa5mA4-68" style="edgeStyle=orthogonalEdgeStyle;rounded=0;orthogonalLoop=1;jettySize=auto;html=1;exitX=0.5;exitY=1;exitDx=0;exitDy=0;entryX=0.5;entryY=0;entryDx=0;entryDy=0;" edge="1" parent="1" source="-X5c44Cogpi9NKUa5mA4-30" target="-X5c44Cogpi9NKUa5mA4-31">
          <mxGeometry relative="1" as="geometry" />
        </mxCell>
        <mxCell id="-X5c44Cogpi9NKUa5mA4-30" value="&lt;font data-font-src=&quot;https://fonts.googleapis.com/css?family=Roboto+Mono&quot; face=&quot;Roboto Mono&quot;&gt;calculate&lt;br&gt;&lt;b&gt;median_residual_batch&lt;/b&gt;&lt;br&gt;&lt;/font&gt;" style="rounded=1;whiteSpace=wrap;html=1;absoluteArcSize=1;arcSize=14;strokeWidth=2;fillColor=#d5e8d4;strokeColor=#82b366;" vertex="1" parent="1">
          <mxGeometry x="-10" y="300" width="180" height="40" as="geometry" />
        </mxCell>
        <mxCell id="-X5c44Cogpi9NKUa5mA4-69" style="edgeStyle=orthogonalEdgeStyle;rounded=0;orthogonalLoop=1;jettySize=auto;html=1;exitX=0.5;exitY=1;exitDx=0;exitDy=0;entryX=0.5;entryY=0;entryDx=0;entryDy=0;" edge="1" parent="1" source="-X5c44Cogpi9NKUa5mA4-31" target="-X5c44Cogpi9NKUa5mA4-32">
          <mxGeometry relative="1" as="geometry" />
        </mxCell>
        <mxCell id="-X5c44Cogpi9NKUa5mA4-31" value="&lt;font data-font-src=&quot;https://fonts.googleapis.com/css?family=Roboto+Mono&quot; face=&quot;Roboto Mono&quot;&gt;calculate&lt;br&gt;&lt;b&gt;residual_slope_b&lt;/b&gt;&lt;br&gt;&lt;/font&gt;" style="rounded=1;whiteSpace=wrap;html=1;absoluteArcSize=1;arcSize=14;strokeWidth=2;fillColor=#d5e8d4;strokeColor=#82b366;" vertex="1" parent="1">
          <mxGeometry x="10" y="360" width="140" height="40" as="geometry" />
        </mxCell>
        <mxCell id="-X5c44Cogpi9NKUa5mA4-70" style="edgeStyle=orthogonalEdgeStyle;rounded=0;orthogonalLoop=1;jettySize=auto;html=1;exitX=0.5;exitY=1;exitDx=0;exitDy=0;entryX=0.5;entryY=0;entryDx=0;entryDy=0;" edge="1" parent="1" source="-X5c44Cogpi9NKUa5mA4-32" target="-X5c44Cogpi9NKUa5mA4-34">
          <mxGeometry relative="1" as="geometry" />
        </mxCell>
        <mxCell id="-X5c44Cogpi9NKUa5mA4-32" value="&lt;font data-font-src=&quot;https://fonts.googleapis.com/css?family=Roboto+Mono&quot; face=&quot;Roboto Mono&quot;&gt;calculate&lt;br&gt;&lt;b&gt;residual_intercept_a&lt;/b&gt;&lt;br&gt;&lt;/font&gt;" style="rounded=1;whiteSpace=wrap;html=1;absoluteArcSize=1;arcSize=14;strokeWidth=2;fillColor=#d5e8d4;strokeColor=#82b366;" vertex="1" parent="1">
          <mxGeometry y="420" width="160" height="40" as="geometry" />
        </mxCell>
        <mxCell id="-X5c44Cogpi9NKUa5mA4-85" style="edgeStyle=orthogonalEdgeStyle;rounded=0;orthogonalLoop=1;jettySize=auto;html=1;exitX=0.5;exitY=1;exitDx=0;exitDy=0;" edge="1" parent="1" source="-X5c44Cogpi9NKUa5mA4-33">
          <mxGeometry relative="1" as="geometry">
            <mxPoint x="420" y="980" as="targetPoint" />
            <Array as="points">
              <mxPoint x="80" y="980" />
            </Array>
          </mxGeometry>
        </mxCell>
        <mxCell id="-X5c44Cogpi9NKUa5mA4-33" value="&lt;font data-font-src=&quot;https://fonts.googleapis.com/css?family=Roboto+Mono&quot; face=&quot;Roboto Mono&quot;&gt;store &lt;b&gt;iter_max&lt;/b&gt;, &lt;b&gt;slope_b&lt;/b&gt;, &lt;b&gt;intercept_a&lt;/b&gt;, &lt;b&gt;residual_batches&lt;/b&gt;,&lt;br&gt;&lt;b&gt;median_residual_batch&lt;/b&gt;, &lt;b&gt;residual_slope_b&lt;/b&gt;,&amp;nbsp;&lt;br&gt;&lt;b&gt;residual_intercept_a&lt;/b&gt;&amp;nbsp;to &lt;b&gt;batches_dict&lt;/b&gt;&lt;br&gt;&lt;/font&gt;" style="rounded=1;whiteSpace=wrap;html=1;absoluteArcSize=1;arcSize=14;strokeWidth=2;" vertex="1" parent="1">
          <mxGeometry x="-40" y="860" width="240" height="100" as="geometry" />
        </mxCell>
        <mxCell id="-X5c44Cogpi9NKUa5mA4-71" style="edgeStyle=orthogonalEdgeStyle;rounded=0;orthogonalLoop=1;jettySize=auto;html=1;exitX=0.5;exitY=1;exitDx=0;exitDy=0;entryX=0.5;entryY=0;entryDx=0;entryDy=0;" edge="1" parent="1" source="-X5c44Cogpi9NKUa5mA4-34" target="-X5c44Cogpi9NKUa5mA4-35">
          <mxGeometry relative="1" as="geometry" />
        </mxCell>
        <mxCell id="-X5c44Cogpi9NKUa5mA4-84" value="&lt;font face=&quot;Roboto Mono&quot; style=&quot;font-size: 12px;&quot;&gt;True&lt;/font&gt;" style="edgeLabel;html=1;align=center;verticalAlign=middle;resizable=0;points=[];" vertex="1" connectable="0" parent="-X5c44Cogpi9NKUa5mA4-71">
          <mxGeometry x="-0.3" y="-1" relative="1" as="geometry">
            <mxPoint as="offset" />
          </mxGeometry>
        </mxCell>
        <mxCell id="-X5c44Cogpi9NKUa5mA4-87" style="edgeStyle=orthogonalEdgeStyle;rounded=0;orthogonalLoop=1;jettySize=auto;html=1;exitX=0.989;exitY=0.479;exitDx=0;exitDy=0;jumpStyle=arc;jumpSize=12;exitPerimeter=0;" edge="1" parent="1" source="-X5c44Cogpi9NKUa5mA4-34" target="-X5c44Cogpi9NKUa5mA4-48">
          <mxGeometry relative="1" as="geometry">
            <Array as="points">
              <mxPoint x="280" y="499" />
              <mxPoint x="280" y="1000" />
              <mxPoint x="80" y="1000" />
            </Array>
          </mxGeometry>
        </mxCell>
        <mxCell id="-X5c44Cogpi9NKUa5mA4-88" value="&lt;font style=&quot;font-size: 12px;&quot; face=&quot;Roboto Mono&quot;&gt;False&lt;/font&gt;" style="edgeLabel;html=1;align=center;verticalAlign=middle;resizable=0;points=[];" vertex="1" connectable="0" parent="-X5c44Cogpi9NKUa5mA4-87">
          <mxGeometry x="-0.9556" y="-1" relative="1" as="geometry">
            <mxPoint x="15" as="offset" />
          </mxGeometry>
        </mxCell>
        <mxCell id="-X5c44Cogpi9NKUa5mA4-34" value="&lt;font face=&quot;Roboto Mono&quot;&gt;if &lt;b&gt;j&lt;/b&gt; &amp;gt; 0 and&amp;nbsp;&lt;br&gt;abs(&lt;b&gt;residual_slope_b&lt;/b&gt;) &amp;lt; tol&lt;br&gt;&lt;/font&gt;" style="shape=hexagon;perimeter=hexagonPerimeter2;whiteSpace=wrap;html=1;fixedSize=1;rounded=1;strokeWidth=2;" vertex="1" parent="1">
          <mxGeometry x="-40" y="480" width="240" height="40" as="geometry" />
        </mxCell>
        <mxCell id="-X5c44Cogpi9NKUa5mA4-72" style="edgeStyle=orthogonalEdgeStyle;rounded=0;orthogonalLoop=1;jettySize=auto;html=1;exitX=0.5;exitY=1;exitDx=0;exitDy=0;entryX=0.5;entryY=0;entryDx=0;entryDy=0;" edge="1" parent="1" source="-X5c44Cogpi9NKUa5mA4-35" target="-X5c44Cogpi9NKUa5mA4-36">
          <mxGeometry relative="1" as="geometry" />
        </mxCell>
        <mxCell id="-X5c44Cogpi9NKUa5mA4-35" value="&lt;font data-font-src=&quot;https://fonts.googleapis.com/css?family=Roboto+Mono&quot; face=&quot;Roboto Mono&quot;&gt;calculate final intercept:&lt;br&gt;&lt;b&gt;intercept_a&lt;/b&gt;&lt;br&gt;&lt;/font&gt;" style="rounded=1;whiteSpace=wrap;html=1;absoluteArcSize=1;arcSize=14;strokeWidth=2;fillColor=#f8cecc;strokeColor=#b85450;" vertex="1" parent="1">
          <mxGeometry x="-30" y="560" width="220" height="40" as="geometry" />
        </mxCell>
        <mxCell id="-X5c44Cogpi9NKUa5mA4-73" style="edgeStyle=orthogonalEdgeStyle;rounded=0;orthogonalLoop=1;jettySize=auto;html=1;exitX=0.5;exitY=1;exitDx=0;exitDy=0;entryX=0.5;entryY=0;entryDx=0;entryDy=0;" edge="1" parent="1" source="-X5c44Cogpi9NKUa5mA4-36" target="-X5c44Cogpi9NKUa5mA4-38">
          <mxGeometry relative="1" as="geometry" />
        </mxCell>
        <mxCell id="-X5c44Cogpi9NKUa5mA4-36" value="&lt;font data-font-src=&quot;https://fonts.googleapis.com/css?family=Roboto+Mono&quot; face=&quot;Roboto Mono&quot;&gt;calculate&lt;br&gt;&lt;b&gt;residual_batches&lt;/b&gt;&lt;br&gt;&lt;/font&gt;" style="rounded=1;whiteSpace=wrap;html=1;absoluteArcSize=1;arcSize=14;strokeWidth=2;fillColor=#f8cecc;strokeColor=#b85450;" vertex="1" parent="1">
          <mxGeometry y="620" width="160" height="40" as="geometry" />
        </mxCell>
        <mxCell id="-X5c44Cogpi9NKUa5mA4-74" style="edgeStyle=orthogonalEdgeStyle;rounded=0;orthogonalLoop=1;jettySize=auto;html=1;exitX=0.5;exitY=1;exitDx=0;exitDy=0;entryX=0.5;entryY=0;entryDx=0;entryDy=0;" edge="1" parent="1" source="-X5c44Cogpi9NKUa5mA4-38" target="-X5c44Cogpi9NKUa5mA4-39">
          <mxGeometry relative="1" as="geometry" />
        </mxCell>
        <mxCell id="-X5c44Cogpi9NKUa5mA4-38" value="&lt;font data-font-src=&quot;https://fonts.googleapis.com/css?family=Roboto+Mono&quot; face=&quot;Roboto Mono&quot;&gt;calculate&lt;br&gt;&lt;b&gt;median_residual_batch&lt;/b&gt;&lt;br&gt;&lt;/font&gt;" style="rounded=1;whiteSpace=wrap;html=1;absoluteArcSize=1;arcSize=14;strokeWidth=2;fillColor=#f8cecc;strokeColor=#b85450;" vertex="1" parent="1">
          <mxGeometry x="-10" y="680" width="180" height="40" as="geometry" />
        </mxCell>
        <mxCell id="-X5c44Cogpi9NKUa5mA4-76" style="edgeStyle=orthogonalEdgeStyle;rounded=0;orthogonalLoop=1;jettySize=auto;html=1;exitX=0.5;exitY=1;exitDx=0;exitDy=0;entryX=0.5;entryY=0;entryDx=0;entryDy=0;" edge="1" parent="1" source="-X5c44Cogpi9NKUa5mA4-39" target="-X5c44Cogpi9NKUa5mA4-40">
          <mxGeometry relative="1" as="geometry" />
        </mxCell>
        <mxCell id="-X5c44Cogpi9NKUa5mA4-39" value="&lt;font data-font-src=&quot;https://fonts.googleapis.com/css?family=Roboto+Mono&quot; face=&quot;Roboto Mono&quot;&gt;calculate&lt;br&gt;&lt;b&gt;residual_slope_b&lt;/b&gt;&lt;br&gt;&lt;/font&gt;" style="rounded=1;whiteSpace=wrap;html=1;absoluteArcSize=1;arcSize=14;strokeWidth=2;fillColor=#f8cecc;strokeColor=#b85450;" vertex="1" parent="1">
          <mxGeometry x="10" y="740" width="140" height="40" as="geometry" />
        </mxCell>
        <mxCell id="-X5c44Cogpi9NKUa5mA4-77" style="edgeStyle=orthogonalEdgeStyle;rounded=0;orthogonalLoop=1;jettySize=auto;html=1;exitX=0.5;exitY=1;exitDx=0;exitDy=0;entryX=0.5;entryY=0;entryDx=0;entryDy=0;" edge="1" parent="1" source="-X5c44Cogpi9NKUa5mA4-40" target="-X5c44Cogpi9NKUa5mA4-33">
          <mxGeometry relative="1" as="geometry" />
        </mxCell>
        <mxCell id="-X5c44Cogpi9NKUa5mA4-40" value="&lt;font data-font-src=&quot;https://fonts.googleapis.com/css?family=Roboto+Mono&quot; face=&quot;Roboto Mono&quot;&gt;calculate&lt;br&gt;&lt;b&gt;residual_intercept_a&lt;/b&gt;&lt;br&gt;&lt;/font&gt;" style="rounded=1;whiteSpace=wrap;html=1;absoluteArcSize=1;arcSize=14;strokeWidth=2;fillColor=#f8cecc;strokeColor=#b85450;" vertex="1" parent="1">
          <mxGeometry y="800" width="160" height="40" as="geometry" />
        </mxCell>
        <mxCell id="-X5c44Cogpi9NKUa5mA4-58" style="edgeStyle=orthogonalEdgeStyle;rounded=0;orthogonalLoop=1;jettySize=auto;html=1;exitX=0.5;exitY=1;exitDx=0;exitDy=0;entryX=0.5;entryY=0;entryDx=0;entryDy=0;" edge="1" parent="1" source="-X5c44Cogpi9NKUa5mA4-41" target="-X5c44Cogpi9NKUa5mA4-23">
          <mxGeometry relative="1" as="geometry" />
        </mxCell>
        <mxCell id="-X5c44Cogpi9NKUa5mA4-41" value="&lt;font data-font-src=&quot;https://fonts.googleapis.com/css?family=Roboto+Mono&quot; face=&quot;Roboto Mono&quot;&gt;declare &lt;b&gt;batches_dict&lt;/b&gt;&lt;br&gt;&lt;/font&gt;" style="rounded=1;whiteSpace=wrap;html=1;absoluteArcSize=1;arcSize=14;strokeWidth=2;" vertex="1" parent="1">
          <mxGeometry x="-10" y="-260" width="180" height="40" as="geometry" />
        </mxCell>
        <mxCell id="-X5c44Cogpi9NKUa5mA4-63" style="edgeStyle=orthogonalEdgeStyle;rounded=0;orthogonalLoop=1;jettySize=auto;html=1;exitX=0.5;exitY=1;exitDx=0;exitDy=0;entryX=0.5;entryY=0;entryDx=0;entryDy=0;" edge="1" parent="1" source="-X5c44Cogpi9NKUa5mA4-42" target="-X5c44Cogpi9NKUa5mA4-24">
          <mxGeometry relative="1" as="geometry" />
        </mxCell>
        <mxCell id="-X5c44Cogpi9NKUa5mA4-42" value="&lt;font data-font-src=&quot;https://fonts.googleapis.com/css?family=Roboto+Mono&quot; face=&quot;Roboto Mono&quot;&gt;store &lt;b&gt;batches&lt;/b&gt;, &lt;b&gt;median_batch&lt;/b&gt; to &lt;b&gt;batches_dict&lt;/b&gt;&lt;br&gt;&lt;/font&gt;" style="rounded=1;whiteSpace=wrap;html=1;absoluteArcSize=1;arcSize=14;strokeWidth=2;" vertex="1" parent="1">
          <mxGeometry y="80" width="160" height="60" as="geometry" />
        </mxCell>
        <mxCell id="-X5c44Cogpi9NKUa5mA4-79" style="edgeStyle=orthogonalEdgeStyle;rounded=0;orthogonalLoop=1;jettySize=auto;html=1;entryX=0;entryY=0.5;entryDx=0;entryDy=0;exitX=0;exitY=0.5;exitDx=0;exitDy=0;" edge="1" parent="1" source="-X5c44Cogpi9NKUa5mA4-45" target="-X5c44Cogpi9NKUa5mA4-24">
          <mxGeometry relative="1" as="geometry">
            <Array as="points">
              <mxPoint x="-90" y="1340" />
              <mxPoint x="-90" y="180" />
            </Array>
          </mxGeometry>
        </mxCell>
        <mxCell id="-X5c44Cogpi9NKUa5mA4-45" value="&lt;font data-font-src=&quot;https://fonts.googleapis.com/css?family=Roboto+Mono&quot; face=&quot;Roboto Mono&quot;&gt;&lt;b&gt;j&lt;/b&gt; = &lt;b&gt;j&lt;/b&gt; + 1&lt;br&gt;&lt;/font&gt;" style="rounded=1;whiteSpace=wrap;html=1;absoluteArcSize=1;arcSize=14;strokeWidth=2;" vertex="1" parent="1">
          <mxGeometry x="40" y="1320" width="80" height="40" as="geometry" />
        </mxCell>
        <mxCell id="-X5c44Cogpi9NKUa5mA4-66" style="edgeStyle=orthogonalEdgeStyle;rounded=0;orthogonalLoop=1;jettySize=auto;html=1;exitX=0.5;exitY=1;exitDx=0;exitDy=0;entryX=0.5;entryY=0;entryDx=0;entryDy=0;" edge="1" parent="1" source="-X5c44Cogpi9NKUa5mA4-48" target="-X5c44Cogpi9NKUa5mA4-49">
          <mxGeometry relative="1" as="geometry" />
        </mxCell>
        <mxCell id="-X5c44Cogpi9NKUa5mA4-48" value="&lt;font data-font-src=&quot;https://fonts.googleapis.com/css?family=Roboto+Mono&quot; face=&quot;Roboto Mono&quot;&gt;store &lt;b&gt;iter_max&lt;/b&gt;, &lt;b&gt;slope_b&lt;/b&gt;, &lt;b&gt;intercept_a&lt;/b&gt;, &lt;b&gt;residual_batches&lt;/b&gt;,&lt;br&gt;&lt;b&gt;median_residual_batch&lt;/b&gt;, &lt;b&gt;residual_slope_b&lt;/b&gt;,&amp;nbsp;&lt;br&gt;&lt;b&gt;residual_intercept_a&lt;/b&gt;&amp;nbsp;to &lt;b&gt;batches_dict&lt;/b&gt;&lt;br&gt;&lt;/font&gt;" style="rounded=1;whiteSpace=wrap;html=1;absoluteArcSize=1;arcSize=14;strokeWidth=2;" vertex="1" parent="1">
          <mxGeometry x="-40" y="1020" width="240" height="100" as="geometry" />
        </mxCell>
        <mxCell id="-X5c44Cogpi9NKUa5mA4-51" style="edgeStyle=orthogonalEdgeStyle;rounded=0;orthogonalLoop=1;jettySize=auto;html=1;exitX=0.5;exitY=1;exitDx=0;exitDy=0;entryX=0.5;entryY=0;entryDx=0;entryDy=0;" edge="1" parent="1" source="-X5c44Cogpi9NKUa5mA4-49" target="-X5c44Cogpi9NKUa5mA4-50">
          <mxGeometry relative="1" as="geometry" />
        </mxCell>
        <mxCell id="-X5c44Cogpi9NKUa5mA4-52" value="&lt;font face=&quot;Roboto Mono&quot; style=&quot;font-size: 12px;&quot;&gt;True&lt;/font&gt;" style="edgeLabel;html=1;align=center;verticalAlign=middle;resizable=0;points=[];" vertex="1" connectable="0" parent="-X5c44Cogpi9NKUa5mA4-51">
          <mxGeometry x="-0.151" relative="1" as="geometry">
            <mxPoint as="offset" />
          </mxGeometry>
        </mxCell>
        <mxCell id="-X5c44Cogpi9NKUa5mA4-54" style="edgeStyle=orthogonalEdgeStyle;rounded=0;orthogonalLoop=1;jettySize=auto;html=1;exitX=1;exitY=0.5;exitDx=0;exitDy=0;" edge="1" parent="1" source="-X5c44Cogpi9NKUa5mA4-49" target="-X5c44Cogpi9NKUa5mA4-53">
          <mxGeometry relative="1" as="geometry" />
        </mxCell>
        <mxCell id="-X5c44Cogpi9NKUa5mA4-55" value="&lt;font style=&quot;font-size: 12px;&quot; face=&quot;Roboto Mono&quot;&gt;False&lt;/font&gt;" style="edgeLabel;html=1;align=center;verticalAlign=middle;resizable=0;points=[];" vertex="1" connectable="0" parent="-X5c44Cogpi9NKUa5mA4-54">
          <mxGeometry x="-0.7929" y="2" relative="1" as="geometry">
            <mxPoint x="2" y="2" as="offset" />
          </mxGeometry>
        </mxCell>
        <mxCell id="-X5c44Cogpi9NKUa5mA4-49" value="&lt;font face=&quot;Roboto Mono&quot;&gt;if &lt;b&gt;j&lt;/b&gt; &amp;lt; &lt;b&gt;2&lt;/b&gt;&lt;/font&gt;" style="shape=hexagon;perimeter=hexagonPerimeter2;whiteSpace=wrap;html=1;fixedSize=1;rounded=1;strokeWidth=2;" vertex="1" parent="1">
          <mxGeometry x="30" y="1140" width="100" height="40" as="geometry" />
        </mxCell>
        <mxCell id="-X5c44Cogpi9NKUa5mA4-80" style="edgeStyle=orthogonalEdgeStyle;rounded=0;orthogonalLoop=1;jettySize=auto;html=1;exitX=0.5;exitY=1;exitDx=0;exitDy=0;entryX=0.5;entryY=0;entryDx=0;entryDy=0;" edge="1" parent="1" source="-X5c44Cogpi9NKUa5mA4-50" target="-X5c44Cogpi9NKUa5mA4-45">
          <mxGeometry relative="1" as="geometry" />
        </mxCell>
        <mxCell id="-X5c44Cogpi9NKUa5mA4-50" value="&lt;font data-font-src=&quot;https://fonts.googleapis.com/css?family=Roboto+Mono&quot; face=&quot;Roboto Mono&quot;&gt;slope_b += residual_slope_b&lt;br&gt;&lt;/font&gt;" style="rounded=1;whiteSpace=wrap;html=1;absoluteArcSize=1;arcSize=14;strokeWidth=2;fillColor=#dae8fc;strokeColor=#6c8ebf;" vertex="1" parent="1">
          <mxGeometry y="1220" width="160" height="40" as="geometry" />
        </mxCell>
        <mxCell id="-X5c44Cogpi9NKUa5mA4-95" style="edgeStyle=orthogonalEdgeStyle;rounded=0;orthogonalLoop=1;jettySize=auto;html=1;exitX=0.5;exitY=1;exitDx=0;exitDy=0;" edge="1" parent="1" source="-X5c44Cogpi9NKUa5mA4-53">
          <mxGeometry relative="1" as="geometry">
            <mxPoint x="80" y="1290" as="targetPoint" />
            <Array as="points">
              <mxPoint x="300" y="1290" />
            </Array>
          </mxGeometry>
        </mxCell>
        <mxCell id="-X5c44Cogpi9NKUa5mA4-53" value="&lt;font data-font-src=&quot;https://fonts.googleapis.com/css?family=Roboto+Mono&quot; face=&quot;Roboto Mono&quot;&gt;\(&lt;br&gt;b_j&lt;br&gt;= b_{j-1} - b_{j-1}^\textrm{res}\,\dfrac{b_{j-1} - b_{j-2}}{b_{j-1}^\textrm{res} - b_{j-2}^\textrm{res}}&lt;br&gt;\)&lt;br&gt;&lt;/font&gt;" style="rounded=1;whiteSpace=wrap;html=1;absoluteArcSize=1;arcSize=14;strokeWidth=2;verticalAlign=middle;fillColor=#dae8fc;strokeColor=#6c8ebf;" vertex="1" parent="1">
          <mxGeometry x="200" y="1220" width="200" height="50" as="geometry" />
        </mxCell>
        <mxCell id="-X5c44Cogpi9NKUa5mA4-92" style="edgeStyle=orthogonalEdgeStyle;rounded=0;orthogonalLoop=1;jettySize=auto;html=1;exitX=0.5;exitY=1;exitDx=0;exitDy=0;entryX=0.5;entryY=0;entryDx=0;entryDy=0;" edge="1" parent="1" source="-X5c44Cogpi9NKUa5mA4-90" target="-X5c44Cogpi9NKUa5mA4-41">
          <mxGeometry relative="1" as="geometry" />
        </mxCell>
        <mxCell id="-X5c44Cogpi9NKUa5mA4-90" value="&lt;font face=&quot;Roboto Mono&quot;&gt;input: &lt;b&gt;x_data&lt;/b&gt;, &lt;b&gt;y_data&lt;/b&gt;, &lt;b&gt;max_iter&lt;/b&gt;, &lt;b&gt;tol&lt;/b&gt;&lt;/font&gt;" style="shape=parallelogram;html=1;strokeWidth=2;perimeter=parallelogramPerimeter;whiteSpace=wrap;rounded=1;arcSize=12;size=0.13636363636363635;fillColor=#f5f5f5;fontColor=#333333;strokeColor=#666666;" vertex="1" parent="1">
          <mxGeometry x="-30" y="-320" width="220" height="40" as="geometry" />
        </mxCell>
        <mxCell id="-X5c44Cogpi9NKUa5mA4-93" value="&lt;font face=&quot;Roboto Mono&quot;&gt;output: &lt;b&gt;batches_dict&lt;/b&gt;&lt;/font&gt;" style="shape=parallelogram;html=1;strokeWidth=2;perimeter=parallelogramPerimeter;whiteSpace=wrap;rounded=1;arcSize=12;size=0.13636363636363635;fillColor=#f5f5f5;fontColor=#333333;strokeColor=#666666;" vertex="1" parent="1">
          <mxGeometry x="-30" y="1400" width="220" height="40" as="geometry" />
        </mxCell>
        <mxCell id="-X5c44Cogpi9NKUa5mA4-94" style="edgeStyle=orthogonalEdgeStyle;rounded=0;orthogonalLoop=1;jettySize=auto;html=1;exitX=0.5;exitY=1;exitDx=0;exitDy=0;entryX=0.5;entryY=0;entryDx=0;entryDy=0;entryPerimeter=0;" edge="1" parent="1" source="-X5c44Cogpi9NKUa5mA4-93" target="-X5c44Cogpi9NKUa5mA4-22">
          <mxGeometry relative="1" as="geometry" />
        </mxCell>
      </root>
    </mxGraphModel>
  </diagram>
</mxfile>
